# xmcd
#
# Track frame offsets: 
#        150
#        18085
#        42618
#        93152
#        163175
#
# Disc length: 2528 seconds
#
# Revision: 3
# Processed by: cddbd v1.5.2PL0 Copyright (c) Steve Scherf et al.
# Submitted via: ExactAudioCopy v0.99pb4
#
DISCID=3409de05
DTITLE=Isaac Hayes - ...To Be Continued
DYEAR=1970
DGENRE=Soul
TTITLE0=Monologue: Ike's Rap I
TTITLE1=Our Day Will Come
TTITLE2=The Look Of Love
TTITLE3=Medley: Monologue | You've Lost That Lovin' Feelin'
TTITLE4=Runnin' Out Of Fools
EXTD=© 2002\nLabel: Stax Records (Fantasy Inc.]\nSCD24 4133-2\n24 BIT 
EXTD=Remastered
EXTT0=
EXTT1=
EXTT2=
EXTT3=
EXTT4=
PLAYORDER=
